<svg width="262" height="286" viewBox="0 0 262 286" fill="none" xmlns="http://www.w3.org/2000/svg">
    <g opacity="0.45" filter="url(#filter0_d_6_1331)">
        <g filter="url(#filter1_d_6_1331)">
<rect x="50" y="45.228" width="423" height="175.366" fill="white"/>
<rect x="50.5" y="45.728" width="422" height="174.366" stroke="#D8E3FE"/>
</g>
<path d="M127.757 94.6584C127.757 95.62 127.604 96.4495 127.299 97.1467C126.993 97.8394 126.565 98.3818 126.014 98.7737L127.791 100.168L126.896 100.995L124.797 99.3274C124.469 99.4094 124.122 99.4504 123.758 99.4504C122.974 99.4504 122.279 99.259 121.673 98.8762C121.067 98.4889 120.595 97.9397 120.258 97.2288C119.925 96.5133 119.754 95.6861 119.745 94.7473V94.0295C119.745 93.0725 119.911 92.2271 120.244 91.4934C120.577 90.7597 121.046 90.1991 121.652 89.8118C122.263 89.4198 122.96 89.2239 123.744 89.2239C124.546 89.2239 125.25 89.4176 125.856 89.8049C126.467 90.1923 126.937 90.7506 127.265 91.4797C127.593 92.2043 127.757 93.052 127.757 94.0227V94.6584ZM126.444 94.0159C126.444 92.8446 126.21 91.9423 125.74 91.3088C125.275 90.6708 124.61 90.3518 123.744 90.3518C122.919 90.3518 122.268 90.6685 121.789 91.302C121.315 91.9309 121.071 92.8059 121.058 93.927V94.6584C121.058 95.7978 121.295 96.6956 121.769 97.3518C122.247 98.0081 122.91 98.3362 123.758 98.3362C124.605 98.3362 125.262 98.0286 125.727 97.4133C126.191 96.7935 126.431 95.9071 126.444 94.7542V94.0159ZM134.568 98.5823C134.076 99.1611 133.354 99.4504 132.401 99.4504C131.613 99.4504 131.011 99.2226 130.597 98.7668C130.187 98.3066 129.979 97.6275 129.975 96.7297V91.9172H131.239V96.6956C131.239 97.8167 131.695 98.3772 132.607 98.3772C133.573 98.3772 134.215 98.0172 134.534 97.2971V91.9172H135.799V99.3137H134.596L134.568 98.5823ZM139.521 99.3137H138.256V91.9172H139.521V99.3137ZM138.153 89.9553C138.153 89.7502 138.215 89.5771 138.338 89.4358C138.466 89.2945 138.653 89.2239 138.899 89.2239C139.145 89.2239 139.332 89.2945 139.459 89.4358C139.587 89.5771 139.651 89.7502 139.651 89.9553C139.651 90.1604 139.587 90.3313 139.459 90.468C139.332 90.6047 139.145 90.6731 138.899 90.6731C138.653 90.6731 138.466 90.6047 138.338 90.468C138.215 90.3313 138.153 90.1604 138.153 89.9553ZM141.663 95.554C141.663 94.4192 141.932 93.5077 142.47 92.8196C143.008 92.1269 143.712 91.7805 144.582 91.7805C145.448 91.7805 146.134 92.0767 146.64 92.6692V88.8137H147.905V99.3137H146.742L146.681 98.5208C146.175 99.1405 145.471 99.4504 144.569 99.4504C143.712 99.4504 143.012 99.0995 142.47 98.3977C141.932 97.6959 141.663 96.7799 141.663 95.6497V95.554ZM142.928 95.6975C142.928 96.5361 143.101 97.1923 143.448 97.6663C143.794 98.1402 144.272 98.3772 144.883 98.3772C145.685 98.3772 146.271 98.0172 146.64 97.2971V93.8997C146.262 93.2024 145.681 92.8538 144.897 92.8538C144.277 92.8538 143.794 93.093 143.448 93.5715C143.101 94.05 142.928 94.7587 142.928 95.6975ZM154.86 99.3137C154.787 99.1679 154.728 98.9081 154.682 98.5344C154.094 99.1451 153.392 99.4504 152.576 99.4504C151.847 99.4504 151.248 99.2454 150.779 98.8352C150.314 98.4205 150.081 97.8964 150.081 97.2629C150.081 96.4928 150.373 95.8958 150.956 95.4719C151.544 95.0435 152.369 94.8293 153.431 94.8293H154.661V94.2483C154.661 93.8062 154.529 93.4553 154.265 93.1956C154.001 92.9312 153.611 92.7991 153.096 92.7991C152.645 92.7991 152.267 92.913 151.961 93.1409C151.656 93.3687 151.503 93.6444 151.503 93.968H150.232C150.232 93.5989 150.362 93.2434 150.621 92.9016C150.886 92.5553 151.241 92.2818 151.688 92.0813C152.139 91.8808 152.633 91.7805 153.171 91.7805C154.023 91.7805 154.691 91.9947 155.174 92.4231C155.657 92.8469 155.908 93.4325 155.926 94.1799V97.5842C155.926 98.2633 156.013 98.8033 156.186 99.2043V99.3137H154.86ZM152.761 98.3499C153.158 98.3499 153.534 98.2473 153.889 98.0422C154.244 97.8372 154.502 97.5706 154.661 97.2424V95.7249H153.67C152.121 95.7249 151.346 96.1783 151.346 97.0852C151.346 97.4817 151.478 97.7916 151.743 98.0149C152.007 98.2382 152.346 98.3499 152.761 98.3499ZM159.518 91.9172L159.552 92.7375C160.094 92.0995 160.826 91.7805 161.746 91.7805C162.781 91.7805 163.485 92.177 163.859 92.97C164.105 92.6145 164.424 92.3274 164.816 92.1086C165.212 91.8899 165.679 91.7805 166.217 91.7805C167.84 91.7805 168.664 92.6396 168.692 94.3577V99.3137H167.427V94.4329C167.427 93.9042 167.306 93.51 167.065 93.2502C166.823 92.9859 166.418 92.8538 165.848 92.8538C165.379 92.8538 164.989 92.995 164.679 93.2776C164.369 93.5556 164.189 93.9316 164.139 94.4055V99.3137H162.868V94.467C162.868 93.3915 162.341 92.8538 161.288 92.8538C160.459 92.8538 159.892 93.2069 159.586 93.9133V99.3137H158.322V91.9172H159.518ZM177.359 97.5979L179.191 91.9172H180.483L177.831 99.3137H176.867L174.187 91.9172H175.479L177.359 97.5979ZM181.675 95.5471C181.675 94.8225 181.817 94.1708 182.099 93.592C182.386 93.0133 182.783 92.5667 183.289 92.2522C183.799 91.9377 184.38 91.7805 185.032 91.7805C186.039 91.7805 186.853 92.1292 187.472 92.8264C188.097 93.5237 188.409 94.4511 188.409 95.6086V95.6975C188.409 96.4176 188.27 97.0647 187.992 97.6389C187.718 98.2086 187.324 98.6529 186.809 98.9719C186.299 99.2909 185.711 99.4504 185.046 99.4504C184.043 99.4504 183.229 99.1018 182.605 98.4045C181.985 97.7073 181.675 96.7844 181.675 95.636V95.5471ZM182.947 95.6975C182.947 96.5178 183.136 97.1764 183.514 97.6731C183.897 98.1698 184.408 98.4182 185.046 98.4182C185.688 98.4182 186.199 98.1676 186.577 97.6663C186.955 97.1604 187.144 96.454 187.144 95.5471C187.144 94.7359 186.95 94.0797 186.563 93.5784C186.18 93.0725 185.67 92.8196 185.032 92.8196C184.408 92.8196 183.904 93.068 183.521 93.5647C183.138 94.0614 182.947 94.7724 182.947 95.6975ZM193.382 98.4182C193.833 98.4182 194.227 98.2815 194.564 98.0081C194.901 97.7346 195.088 97.3928 195.125 96.9827H196.321C196.298 97.4065 196.152 97.8098 195.884 98.1926C195.615 98.5754 195.255 98.8808 194.803 99.1086C194.357 99.3365 193.883 99.4504 193.382 99.4504C192.374 99.4504 191.572 99.1155 190.975 98.4456C190.383 97.7711 190.087 96.8505 190.087 95.6838V95.4719C190.087 94.7519 190.219 94.1116 190.483 93.551C190.747 92.9905 191.126 92.5553 191.618 92.2454C192.115 91.9355 192.7 91.7805 193.375 91.7805C194.204 91.7805 194.892 92.0289 195.439 92.5256C195.991 93.0224 196.285 93.6672 196.321 94.4602H195.125C195.088 93.9817 194.906 93.5898 194.578 93.2844C194.254 92.9745 193.853 92.8196 193.375 92.8196C192.732 92.8196 192.233 93.052 191.878 93.5168C191.527 93.9771 191.351 94.6448 191.351 95.5198V95.759C191.351 96.6112 191.527 97.2675 191.878 97.7278C192.229 98.1881 192.73 98.4182 193.382 98.4182ZM199.537 99.3137H198.272V91.9172H199.537V99.3137ZM198.17 89.9553C198.17 89.7502 198.231 89.5771 198.354 89.4358C198.482 89.2945 198.669 89.2239 198.915 89.2239C199.161 89.2239 199.348 89.2945 199.475 89.4358C199.603 89.5771 199.667 89.7502 199.667 89.9553C199.667 90.1604 199.603 90.3313 199.475 90.468C199.348 90.6047 199.161 90.6731 198.915 90.6731C198.669 90.6731 198.482 90.6047 198.354 90.468C198.231 90.3313 198.17 90.1604 198.17 89.9553ZM208.249 95.6975C208.249 96.8277 207.989 97.7369 207.47 98.425C206.95 99.1086 206.253 99.4504 205.378 99.4504C204.444 99.4504 203.721 99.12 203.211 98.4592L203.149 99.3137H201.987V88.8137H203.252V92.7307C203.762 92.0972 204.466 91.7805 205.364 91.7805C206.262 91.7805 206.966 92.12 207.476 92.7991C207.991 93.4781 208.249 94.4078 208.249 95.5881V95.6975ZM206.984 95.554C206.984 94.6926 206.818 94.0273 206.485 93.5579C206.153 93.0885 205.674 92.8538 205.05 92.8538C204.216 92.8538 203.616 93.2411 203.252 94.0159V97.2151C203.639 97.9898 204.243 98.3772 205.063 98.3772C205.669 98.3772 206.141 98.1425 206.478 97.6731C206.816 97.2037 206.984 96.4973 206.984 95.554ZM214.835 98.5823C214.343 99.1611 213.62 99.4504 212.668 99.4504C211.88 99.4504 211.278 99.2226 210.863 98.7668C210.453 98.3066 210.246 97.6275 210.241 96.7297V91.9172H211.506V96.6956C211.506 97.8167 211.962 98.3772 212.873 98.3772C213.839 98.3772 214.482 98.0172 214.801 97.2971V91.9172H216.065V99.3137H214.862L214.835 98.5823ZM222.72 97.3518C222.72 97.01 222.59 96.7457 222.33 96.5588C222.075 96.3674 221.626 96.2034 220.983 96.0667C220.345 95.9299 219.837 95.7659 219.459 95.5745C219.085 95.3831 218.807 95.1552 218.625 94.8909C218.447 94.6265 218.358 94.3121 218.358 93.9475C218.358 93.3414 218.614 92.8287 219.124 92.4094C219.639 91.9902 220.295 91.7805 221.093 91.7805C221.931 91.7805 222.61 91.997 223.13 92.4299C223.654 92.8629 223.916 93.4166 223.916 94.0911H222.645C222.645 93.7447 222.496 93.4462 222.2 93.1956C221.909 92.9449 221.539 92.8196 221.093 92.8196C220.633 92.8196 220.272 92.9198 220.013 93.1204C219.753 93.3209 219.623 93.5829 219.623 93.9065C219.623 94.2118 219.744 94.442 219.985 94.5969C220.227 94.7519 220.662 94.9 221.291 95.0413C221.925 95.1825 222.437 95.3512 222.829 95.5471C223.221 95.7431 223.51 95.9801 223.697 96.2581C223.889 96.5315 223.984 96.8665 223.984 97.2629C223.984 97.9237 223.72 98.4547 223.191 98.8557C222.663 99.2522 221.977 99.4504 221.134 99.4504C220.541 99.4504 220.017 99.3456 219.562 99.136C219.106 98.9264 218.748 98.6347 218.488 98.261C218.233 97.8827 218.106 97.4749 218.106 97.0374H219.37C219.393 97.4612 219.562 97.7984 219.876 98.0491C220.195 98.2952 220.614 98.4182 221.134 98.4182C221.612 98.4182 221.995 98.3225 222.282 98.1311C222.574 97.9351 222.72 97.6754 222.72 97.3518ZM233.014 99.4504C232.011 99.4504 231.196 99.1223 230.567 98.4661C229.938 97.8053 229.623 96.9234 229.623 95.8206V95.5881C229.623 94.8544 229.762 94.2004 230.04 93.6262C230.323 93.0474 230.715 92.5963 231.216 92.2727C231.722 91.9446 232.269 91.7805 232.857 91.7805C233.818 91.7805 234.566 92.0972 235.099 92.7307C235.632 93.3642 235.899 94.2711 235.899 95.4514V95.9778H230.888C230.906 96.7069 231.118 97.2971 231.524 97.7483C231.934 98.1949 232.453 98.4182 233.082 98.4182C233.529 98.4182 233.907 98.3271 234.217 98.1448C234.527 97.9625 234.798 97.7209 235.03 97.4202L235.803 98.0217C235.183 98.9742 234.253 99.4504 233.014 99.4504ZM232.857 92.8196C232.346 92.8196 231.918 93.0064 231.571 93.3801C231.225 93.7493 231.011 94.2688 230.929 94.9387H234.634V94.843C234.598 94.2004 234.424 93.7037 234.114 93.3528C233.805 92.9973 233.385 92.8196 232.857 92.8196ZM242.355 98.5823C241.863 99.1611 241.14 99.4504 240.188 99.4504C239.399 99.4504 238.798 99.2226 238.383 98.7668C237.973 98.3066 237.766 97.6275 237.761 96.7297V91.9172H239.026V96.6956C239.026 97.8167 239.481 98.3772 240.393 98.3772C241.359 98.3772 242.002 98.0172 242.321 97.2971V91.9172H243.585V99.3137H242.382L242.355 98.5823ZM247.122 91.9172L247.157 92.7375C247.699 92.0995 248.43 91.7805 249.351 91.7805C250.385 91.7805 251.09 92.177 251.463 92.97C251.709 92.6145 252.028 92.3274 252.42 92.1086C252.817 91.8899 253.284 91.7805 253.822 91.7805C255.444 91.7805 256.269 92.6396 256.296 94.3577V99.3137H255.032V94.4329C255.032 93.9042 254.911 93.51 254.669 93.2502C254.428 92.9859 254.022 92.8538 253.452 92.8538C252.983 92.8538 252.593 92.995 252.284 93.2776C251.974 93.5556 251.794 93.9316 251.744 94.4055V99.3137H250.472V94.467C250.472 93.3915 249.946 92.8538 248.893 92.8538C248.064 92.8538 247.496 93.2069 247.191 93.9133V99.3137H245.926V91.9172H247.122ZM263.719 91.9172L263.76 92.8469C264.325 92.136 265.064 91.7805 265.975 91.7805C267.538 91.7805 268.327 92.6624 268.34 94.426V99.3137H267.076V94.4192C267.071 93.886 266.948 93.4918 266.707 93.2366C266.47 92.9814 266.098 92.8538 265.592 92.8538C265.182 92.8538 264.822 92.9631 264.512 93.1819C264.202 93.4006 263.961 93.6877 263.788 94.0432V99.3137H262.523V91.9172H263.719ZM273.737 99.4504C272.734 99.4504 271.919 99.1223 271.29 98.4661C270.661 97.8053 270.346 96.9234 270.346 95.8206V95.5881C270.346 94.8544 270.485 94.2004 270.763 93.6262C271.046 93.0474 271.438 92.5963 271.939 92.2727C272.445 91.9446 272.992 91.7805 273.58 91.7805C274.541 91.7805 275.289 92.0972 275.822 92.7307C276.355 93.3642 276.622 94.2711 276.622 95.4514V95.9778H271.611C271.629 96.7069 271.841 97.2971 272.247 97.7483C272.657 98.1949 273.176 98.4182 273.805 98.4182C274.252 98.4182 274.63 98.3271 274.94 98.1448C275.25 97.9625 275.521 97.7209 275.754 97.4202L276.526 98.0217C275.906 98.9742 274.976 99.4504 273.737 99.4504ZM273.58 92.8196C273.069 92.8196 272.641 93.0064 272.295 93.3801C271.948 93.7493 271.734 94.2688 271.652 94.9387H275.357V94.843C275.321 94.2004 275.147 93.7037 274.837 93.3528C274.528 92.9973 274.108 92.8196 273.58 92.8196ZM278.47 101.296L277.753 100.804C278.181 100.207 278.404 99.5917 278.423 98.9583V97.8167H279.66V98.8079C279.66 99.2681 279.546 99.7284 279.318 100.189C279.095 100.649 278.812 101.018 278.47 101.296ZM288.641 99.4504C287.639 99.4504 286.823 99.1223 286.194 98.4661C285.565 97.8053 285.251 96.9234 285.251 95.8206V95.5881C285.251 94.8544 285.39 94.2004 285.668 93.6262C285.95 93.0474 286.342 92.5963 286.844 92.2727C287.349 91.9446 287.896 91.7805 288.484 91.7805C289.446 91.7805 290.193 92.0972 290.726 92.7307C291.26 93.3642 291.526 94.2711 291.526 95.4514V95.9778H286.515C286.534 96.7069 286.746 97.2971 287.151 97.7483C287.561 98.1949 288.081 98.4182 288.71 98.4182C289.156 98.4182 289.535 98.3271 289.845 98.1448C290.154 97.9625 290.426 97.7209 290.658 97.4202L291.431 98.0217C290.811 98.9742 289.881 99.4504 288.641 99.4504ZM288.484 92.8196C287.974 92.8196 287.545 93.0064 287.199 93.3801C286.853 93.7493 286.639 94.2688 286.556 94.9387H290.262V94.843C290.225 94.2004 290.052 93.7037 289.742 93.3528C289.432 92.9973 289.013 92.8196 288.484 92.8196ZM296.991 93.052C296.8 93.0201 296.592 93.0042 296.369 93.0042C295.54 93.0042 294.977 93.3573 294.681 94.0637V99.3137H293.416V91.9172H294.646L294.667 92.7717C295.082 92.1109 295.67 91.7805 296.431 91.7805C296.677 91.7805 296.864 91.8124 296.991 91.8762V93.052ZM302.873 99.3137C302.8 99.1679 302.741 98.9081 302.695 98.5344C302.107 99.1451 301.406 99.4504 300.59 99.4504C299.861 99.4504 299.261 99.2454 298.792 98.8352C298.327 98.4205 298.095 97.8964 298.095 97.2629C298.095 96.4928 298.386 95.8958 298.97 95.4719C299.558 95.0435 300.382 94.8293 301.444 94.8293H302.675V94.2483C302.675 93.8062 302.543 93.4553 302.278 93.1956C302.014 92.9312 301.624 92.7991 301.109 92.7991C300.658 92.7991 300.28 92.913 299.975 93.1409C299.669 93.3687 299.517 93.6444 299.517 93.968H298.245C298.245 93.5989 298.375 93.2434 298.635 92.9016C298.899 92.5553 299.255 92.2818 299.701 92.0813C300.152 91.8808 300.647 91.7805 301.185 91.7805C302.037 91.7805 302.704 91.9947 303.188 92.4231C303.671 92.8469 303.921 93.4325 303.939 94.1799V97.5842C303.939 98.2633 304.026 98.8033 304.199 99.2043V99.3137H302.873ZM300.774 98.3499C301.171 98.3499 301.547 98.2473 301.902 98.0422C302.258 97.8372 302.515 97.5706 302.675 97.2424V95.7249H301.684C300.134 95.7249 299.359 96.1783 299.359 97.0852C299.359 97.4817 299.492 97.7916 299.756 98.0149C300.02 98.2382 300.36 98.3499 300.774 98.3499ZM308.058 90.1262V91.9172H309.439V92.8948H308.058V97.4817C308.058 97.7779 308.119 98.0012 308.242 98.1516C308.365 98.2974 308.575 98.3704 308.871 98.3704C309.017 98.3704 309.218 98.343 309.473 98.2883V99.3137C309.14 99.4049 308.816 99.4504 308.502 99.4504C307.937 99.4504 307.511 99.2795 307.224 98.9377C306.937 98.5959 306.793 98.1106 306.793 97.4817V92.8948H305.446V91.9172H306.793V90.1262H308.058ZM318.201 98.4182C318.653 98.4182 319.047 98.2815 319.384 98.0081C319.721 97.7346 319.908 97.3928 319.945 96.9827H321.141C321.118 97.4065 320.972 97.8098 320.703 98.1926C320.434 98.5754 320.074 98.8808 319.623 99.1086C319.177 99.3365 318.703 99.4504 318.201 99.4504C317.194 99.4504 316.392 99.1155 315.795 98.4456C315.203 97.7711 314.906 96.8505 314.906 95.6838V95.4719C314.906 94.7519 315.039 94.1116 315.303 93.551C315.567 92.9905 315.946 92.5553 316.438 92.2454C316.934 91.9355 317.52 91.7805 318.195 91.7805C319.024 91.7805 319.712 92.0289 320.259 92.5256C320.81 93.0224 321.104 93.6672 321.141 94.4602H319.945C319.908 93.9817 319.726 93.5898 319.398 93.2844C319.074 92.9745 318.673 92.8196 318.195 92.8196C317.552 92.8196 317.053 93.052 316.698 93.5168C316.347 93.9771 316.171 94.6448 316.171 95.5198V95.759C316.171 96.6112 316.347 97.2675 316.698 97.7278C317.048 98.1881 317.55 98.4182 318.201 98.4182ZM322.648 95.5471C322.648 94.8225 322.789 94.1708 323.072 93.592C323.359 93.0133 323.755 92.5667 324.261 92.2522C324.771 91.9377 325.353 91.7805 326.004 91.7805C327.011 91.7805 327.825 92.1292 328.445 92.8264C329.069 93.5237 329.381 94.4511 329.381 95.6086V95.6975C329.381 96.4176 329.242 97.0647 328.964 97.6389C328.691 98.2086 328.297 98.6529 327.782 98.9719C327.271 99.2909 326.683 99.4504 326.018 99.4504C325.015 99.4504 324.202 99.1018 323.577 98.4045C322.958 97.7073 322.648 96.7844 322.648 95.636V95.5471ZM323.919 95.6975C323.919 96.5178 324.108 97.1764 324.487 97.6731C324.869 98.1698 325.38 98.4182 326.018 98.4182C326.66 98.4182 327.171 98.1676 327.549 97.6663C327.927 97.1604 328.117 96.454 328.117 95.5471C328.117 94.7359 327.923 94.0797 327.535 93.5784C327.153 93.0725 326.642 92.8196 326.004 92.8196C325.38 92.8196 324.876 93.068 324.493 93.5647C324.111 94.0614 323.919 94.7724 323.919 95.6975ZM332.583 91.9172L332.624 92.8469C333.19 92.136 333.928 91.7805 334.839 91.7805C336.402 91.7805 337.191 92.6624 337.204 94.426V99.3137H335.94V94.4192C335.935 93.886 335.812 93.4918 335.571 93.2366C335.334 92.9814 334.962 92.8538 334.456 92.8538C334.046 92.8538 333.686 92.9631 333.376 93.1819C333.066 93.4006 332.825 93.6877 332.652 94.0432V99.3137H331.387V91.9172H332.583ZM343.838 97.3518C343.838 97.01 343.708 96.7457 343.449 96.5588C343.194 96.3674 342.745 96.2034 342.102 96.0667C341.464 95.9299 340.956 95.7659 340.578 95.5745C340.204 95.3831 339.926 95.1552 339.744 94.8909C339.566 94.6265 339.477 94.3121 339.477 93.9475C339.477 93.3414 339.732 92.8287 340.243 92.4094C340.758 91.9902 341.414 91.7805 342.211 91.7805C343.05 91.7805 343.729 91.997 344.249 92.4299C344.773 92.8629 345.035 93.4166 345.035 94.0911H343.763C343.763 93.7447 343.615 93.4462 343.319 93.1956C343.027 92.9449 342.658 92.8196 342.211 92.8196C341.751 92.8196 341.391 92.9198 341.131 93.1204C340.872 93.3209 340.742 93.5829 340.742 93.9065C340.742 94.2118 340.862 94.442 341.104 94.5969C341.346 94.7519 341.781 94.9 342.41 95.0413C343.043 95.1825 343.556 95.3512 343.948 95.5471C344.34 95.7431 344.629 95.9801 344.816 96.2581C345.007 96.5315 345.103 96.8665 345.103 97.2629C345.103 97.9237 344.839 98.4547 344.31 98.8557C343.781 99.2522 343.096 99.4504 342.252 99.4504C341.66 99.4504 341.136 99.3456 340.68 99.136C340.224 98.9264 339.867 98.6347 339.607 98.261C339.352 97.8827 339.224 97.4749 339.224 97.0374H340.489C340.512 97.4612 340.68 97.7984 340.995 98.0491C341.314 98.2952 341.733 98.4182 342.252 98.4182C342.731 98.4182 343.114 98.3225 343.401 98.1311C343.693 97.9351 343.838 97.6754 343.838 97.3518ZM350.24 99.4504C349.237 99.4504 348.421 99.1223 347.793 98.4661C347.164 97.8053 346.849 96.9234 346.849 95.8206V95.5881C346.849 94.8544 346.988 94.2004 347.266 93.6262C347.549 93.0474 347.941 92.5963 348.442 92.2727C348.948 91.9446 349.495 91.7805 350.083 91.7805C351.044 91.7805 351.792 92.0972 352.325 92.7307C352.858 93.3642 353.125 94.2711 353.125 95.4514V95.9778H348.114C348.132 96.7069 348.344 97.2971 348.75 97.7483C349.16 98.1949 349.679 98.4182 350.308 98.4182C350.755 98.4182 351.133 98.3271 351.443 98.1448C351.753 97.9625 352.024 97.7209 352.256 97.4202L353.029 98.0217C352.409 98.9742 351.479 99.4504 350.24 99.4504ZM350.083 92.8196C349.572 92.8196 349.144 93.0064 348.797 93.3801C348.451 93.7493 348.237 94.2688 348.155 94.9387H351.86V94.843C351.823 94.2004 351.65 93.7037 351.34 93.3528C351.03 92.9973 350.611 92.8196 350.083 92.8196ZM357.981 98.4182C358.432 98.4182 358.826 98.2815 359.164 98.0081C359.501 97.7346 359.688 97.3928 359.724 96.9827H360.921C360.898 97.4065 360.752 97.8098 360.483 98.1926C360.214 98.5754 359.854 98.8808 359.403 99.1086C358.956 99.3365 358.482 99.4504 357.981 99.4504C356.974 99.4504 356.172 99.1155 355.575 98.4456C354.982 97.7711 354.686 96.8505 354.686 95.6838V95.4719C354.686 94.7519 354.818 94.1116 355.083 93.551C355.347 92.9905 355.725 92.5553 356.217 92.2454C356.714 91.9355 357.3 91.7805 357.974 91.7805C358.804 91.7805 359.492 92.0289 360.039 92.5256C360.59 93.0224 360.884 93.6672 360.921 94.4602H359.724C359.688 93.9817 359.506 93.5898 359.177 93.2844C358.854 92.9745 358.453 92.8196 357.974 92.8196C357.332 92.8196 356.833 93.052 356.477 93.5168C356.126 93.9771 355.951 94.6448 355.951 95.5198V95.759C355.951 96.6112 356.126 97.2675 356.477 97.7278C356.828 98.1881 357.329 98.4182 357.981 98.4182ZM364.478 90.1262V91.9172H365.859V92.8948H364.478V97.4817C364.478 97.7779 364.54 98.0012 364.663 98.1516C364.786 98.2974 364.995 98.3704 365.292 98.3704C365.438 98.3704 365.638 98.343 365.893 98.2883V99.3137C365.561 99.4049 365.237 99.4504 364.923 99.4504C364.357 99.4504 363.931 99.2795 363.644 98.9377C363.357 98.5959 363.214 98.1106 363.214 97.4817V92.8948H361.867V91.9172H363.214V90.1262H364.478ZM370.832 99.4504C369.829 99.4504 369.013 99.1223 368.385 98.4661C367.756 97.8053 367.441 96.9234 367.441 95.8206V95.5881C367.441 94.8544 367.58 94.2004 367.858 93.6262C368.141 93.0474 368.533 92.5963 369.034 92.2727C369.54 91.9446 370.087 91.7805 370.675 91.7805C371.636 91.7805 372.384 92.0972 372.917 92.7307C373.45 93.3642 373.717 94.2711 373.717 95.4514V95.9778H368.706C368.724 96.7069 368.936 97.2971 369.342 97.7483C369.752 98.1949 370.271 98.4182 370.9 98.4182C371.347 98.4182 371.725 98.3271 372.035 98.1448C372.345 97.9625 372.616 97.7209 372.848 97.4202L373.621 98.0217C373.001 98.9742 372.071 99.4504 370.832 99.4504ZM370.675 92.8196C370.164 92.8196 369.736 93.0064 369.389 93.3801C369.043 93.7493 368.829 94.2688 368.747 94.9387H372.452V94.843C372.415 94.2004 372.242 93.7037 371.932 93.3528C371.623 92.9973 371.203 92.8196 370.675 92.8196ZM377.322 90.1262V91.9172H378.703V92.8948H377.322V97.4817C377.322 97.7779 377.384 98.0012 377.507 98.1516C377.63 98.2974 377.839 98.3704 378.136 98.3704C378.281 98.3704 378.482 98.343 378.737 98.2883V99.3137C378.405 99.4049 378.081 99.4504 377.766 99.4504C377.201 99.4504 376.775 99.2795 376.488 98.9377C376.201 98.5959 376.057 98.1106 376.057 97.4817V92.8948H374.711V91.9172H376.057V90.1262H377.322ZM385.173 98.5823C384.681 99.1611 383.958 99.4504 383.006 99.4504C382.217 99.4504 381.616 99.2226 381.201 98.7668C380.791 98.3066 380.584 97.6275 380.579 96.7297V91.9172H381.844V96.6956C381.844 97.8167 382.299 98.3772 383.211 98.3772C384.177 98.3772 384.82 98.0172 385.139 97.2971V91.9172H386.403V99.3137H385.2L385.173 98.5823ZM391.82 99.4504C390.818 99.4504 390.002 99.1223 389.373 98.4661C388.744 97.8053 388.43 96.9234 388.43 95.8206V95.5881C388.43 94.8544 388.569 94.2004 388.847 93.6262C389.129 93.0474 389.521 92.5963 390.022 92.2727C390.528 91.9446 391.075 91.7805 391.663 91.7805C392.625 91.7805 393.372 92.0972 393.905 92.7307C394.439 93.3642 394.705 94.2711 394.705 95.4514V95.9778H389.694C389.713 96.7069 389.925 97.2971 390.33 97.7483C390.74 98.1949 391.26 98.4182 391.889 98.4182C392.335 98.4182 392.714 98.3271 393.023 98.1448C393.333 97.9625 393.605 97.7209 393.837 97.4202L394.609 98.0217C393.99 98.9742 393.06 99.4504 391.82 99.4504ZM391.663 92.8196C391.153 92.8196 390.724 93.0064 390.378 93.3801C390.032 93.7493 389.817 94.2688 389.735 94.9387H393.44V94.843C393.404 94.2004 393.231 93.7037 392.921 93.3528C392.611 92.9973 392.192 92.8196 391.663 92.8196ZM400.17 93.052C399.979 93.0201 399.771 93.0042 399.548 93.0042C398.719 93.0042 398.156 93.3573 397.859 94.0637V99.3137H396.595V91.9172H397.825L397.846 92.7717C398.261 92.1109 398.848 91.7805 399.609 91.7805C399.856 91.7805 400.042 91.8124 400.17 91.8762V93.052ZM122.397 124.598L124.229 118.917H125.521L122.869 126.314H121.905L119.226 118.917H120.518L122.397 124.598ZM126.714 122.547C126.714 121.823 126.855 121.171 127.138 120.592C127.425 120.013 127.821 119.567 128.327 119.252C128.838 118.938 129.419 118.781 130.07 118.781C131.078 118.781 131.891 119.129 132.511 119.826C133.135 120.524 133.447 121.451 133.447 122.609V122.698C133.447 123.418 133.308 124.065 133.03 124.639C132.757 125.209 132.363 125.653 131.848 125.972C131.337 126.291 130.749 126.45 130.084 126.45C129.081 126.45 128.268 126.102 127.644 125.405C127.024 124.707 126.714 123.784 126.714 122.636V122.547ZM127.985 122.698C127.985 123.518 128.175 124.176 128.553 124.673C128.936 125.17 129.446 125.418 130.084 125.418C130.727 125.418 131.237 125.168 131.615 124.666C131.994 124.16 132.183 123.454 132.183 122.547C132.183 121.736 131.989 121.08 131.602 120.578C131.219 120.073 130.708 119.82 130.07 119.82C129.446 119.82 128.942 120.068 128.56 120.565C128.177 121.061 127.985 121.772 127.985 122.698ZM136.827 126.314H135.563V115.814H136.827V126.314ZM143.844 125.582C143.352 126.161 142.629 126.45 141.677 126.45C140.889 126.45 140.287 126.223 139.872 125.767C139.462 125.307 139.255 124.628 139.25 123.73V118.917H140.515V123.696C140.515 124.817 140.971 125.377 141.882 125.377C142.848 125.377 143.491 125.017 143.81 124.297V118.917H145.074V126.314H143.871L143.844 125.582ZM153.67 122.698C153.67 123.823 153.413 124.73 152.898 125.418C152.383 126.106 151.686 126.45 150.806 126.45C149.908 126.45 149.202 126.166 148.687 125.596V129.157H147.422V118.917H148.577L148.639 119.738C149.154 119.1 149.869 118.781 150.785 118.781C151.674 118.781 152.376 119.115 152.891 119.785C153.41 120.455 153.67 121.387 153.67 122.581V122.698ZM152.406 122.554C152.406 121.72 152.228 121.061 151.872 120.578C151.517 120.095 151.029 119.854 150.409 119.854C149.644 119.854 149.07 120.193 148.687 120.872V124.406C149.065 125.081 149.644 125.418 150.423 125.418C151.029 125.418 151.51 125.179 151.866 124.7C152.226 124.217 152.406 123.502 152.406 122.554ZM157.419 117.126V118.917H158.8V119.895H157.419V124.482C157.419 124.778 157.481 125.001 157.604 125.152C157.727 125.297 157.937 125.37 158.233 125.37C158.379 125.37 158.579 125.343 158.834 125.288V126.314C158.502 126.405 158.178 126.45 157.864 126.45C157.299 126.45 156.872 126.28 156.585 125.938C156.298 125.596 156.155 125.111 156.155 124.482V119.895H154.808V118.917H156.155V117.126H157.419ZM165.27 126.314C165.197 126.168 165.138 125.908 165.092 125.534C164.504 126.145 163.803 126.45 162.987 126.45C162.258 126.45 161.658 126.245 161.189 125.835C160.724 125.42 160.492 124.896 160.492 124.263C160.492 123.493 160.783 122.896 161.367 122.472C161.955 122.044 162.779 121.829 163.841 121.829H165.072V121.248C165.072 120.806 164.94 120.455 164.675 120.196C164.411 119.931 164.021 119.799 163.506 119.799C163.055 119.799 162.677 119.913 162.372 120.141C162.066 120.369 161.914 120.644 161.914 120.968H160.642C160.642 120.599 160.772 120.243 161.032 119.902C161.296 119.555 161.652 119.282 162.098 119.081C162.549 118.881 163.044 118.781 163.582 118.781C164.434 118.781 165.101 118.995 165.584 119.423C166.068 119.847 166.318 120.433 166.336 121.18V124.584C166.336 125.263 166.423 125.803 166.596 126.204V126.314H165.27ZM163.171 125.35C163.568 125.35 163.944 125.247 164.299 125.042C164.655 124.837 164.912 124.571 165.072 124.242V122.725H164.081C162.531 122.725 161.756 123.178 161.756 124.085C161.756 124.482 161.888 124.792 162.153 125.015C162.417 125.238 162.757 125.35 163.171 125.35ZM170.455 117.126V118.917H171.836V119.895H170.455V124.482C170.455 124.778 170.516 125.001 170.639 125.152C170.762 125.297 170.972 125.37 171.268 125.37C171.414 125.37 171.614 125.343 171.87 125.288V126.314C171.537 126.405 171.213 126.45 170.899 126.45C170.334 126.45 169.908 126.28 169.621 125.938C169.334 125.596 169.19 125.111 169.19 124.482V119.895H167.843V118.917H169.19V117.126H170.455ZM175.113 126.314H173.848V118.917H175.113V126.314ZM173.746 116.955C173.746 116.75 173.807 116.577 173.93 116.436C174.058 116.295 174.245 116.224 174.491 116.224C174.737 116.224 174.924 116.295 175.051 116.436C175.179 116.577 175.243 116.75 175.243 116.955C175.243 117.16 175.179 117.331 175.051 117.468C174.924 117.605 174.737 117.673 174.491 117.673C174.245 117.673 174.058 117.605 173.93 117.468C173.807 117.331 173.746 117.16 173.746 116.955ZM183.825 122.698C183.825 123.828 183.565 124.737 183.046 125.425C182.526 126.109 181.829 126.45 180.954 126.45C180.02 126.45 179.297 126.12 178.787 125.459L178.725 126.314H177.563V115.814H178.828V119.731C179.338 119.097 180.042 118.781 180.94 118.781C181.838 118.781 182.542 119.12 183.052 119.799C183.567 120.478 183.825 121.408 183.825 122.588V122.698ZM182.56 122.554C182.56 121.693 182.394 121.027 182.061 120.558C181.729 120.088 181.25 119.854 180.626 119.854C179.792 119.854 179.192 120.241 178.828 121.016V124.215C179.215 124.99 179.819 125.377 180.639 125.377C181.245 125.377 181.717 125.142 182.054 124.673C182.392 124.204 182.56 123.497 182.56 122.554ZM190.411 125.582C189.919 126.161 189.196 126.45 188.244 126.45C187.456 126.45 186.854 126.223 186.439 125.767C186.029 125.307 185.822 124.628 185.817 123.73V118.917H187.082V123.696C187.082 124.817 187.538 125.377 188.449 125.377C189.415 125.377 190.058 125.017 190.377 124.297V118.917H191.641V126.314H190.438L190.411 125.582ZM198.296 124.352C198.296 124.01 198.166 123.746 197.906 123.559C197.651 123.367 197.202 123.203 196.559 123.067C195.921 122.93 195.413 122.766 195.035 122.574C194.661 122.383 194.383 122.155 194.201 121.891C194.023 121.627 193.934 121.312 193.934 120.948C193.934 120.341 194.19 119.829 194.7 119.409C195.215 118.99 195.871 118.781 196.669 118.781C197.507 118.781 198.186 118.997 198.706 119.43C199.23 119.863 199.492 120.417 199.492 121.091H198.221C198.221 120.745 198.072 120.446 197.776 120.196C197.485 119.945 197.115 119.82 196.669 119.82C196.209 119.82 195.849 119.92 195.589 120.12C195.329 120.321 195.199 120.583 195.199 120.906C195.199 121.212 195.32 121.442 195.561 121.597C195.803 121.752 196.238 121.9 196.867 122.041C197.501 122.183 198.013 122.351 198.405 122.547C198.797 122.743 199.086 122.98 199.273 123.258C199.465 123.531 199.56 123.866 199.56 124.263C199.56 124.924 199.296 125.455 198.767 125.856C198.239 126.252 197.553 126.45 196.71 126.45C196.117 126.45 195.593 126.346 195.138 126.136C194.682 125.926 194.324 125.635 194.064 125.261C193.809 124.883 193.682 124.475 193.682 124.037H194.946C194.969 124.461 195.138 124.798 195.452 125.049C195.771 125.295 196.19 125.418 196.71 125.418C197.188 125.418 197.571 125.323 197.858 125.131C198.15 124.935 198.296 124.675 198.296 124.352ZM210.087 125.582C209.595 126.161 208.872 126.45 207.92 126.45C207.132 126.45 206.53 126.223 206.115 125.767C205.705 125.307 205.498 124.628 205.493 123.73V118.917H206.758V123.696C206.758 124.817 207.214 125.377 208.125 125.377C209.091 125.377 209.734 125.017 210.053 124.297V118.917H211.317V126.314H210.114L210.087 125.582ZM215.381 117.126V118.917H216.762V119.895H215.381V124.482C215.381 124.778 215.443 125.001 215.566 125.152C215.689 125.297 215.898 125.37 216.194 125.37C216.34 125.37 216.541 125.343 216.796 125.288V126.314C216.463 126.405 216.14 126.45 215.825 126.45C215.26 126.45 214.834 126.28 214.547 125.938C214.26 125.596 214.116 125.111 214.116 124.482V119.895H212.77V118.917H214.116V117.126H215.381ZM223.754 118.917L223.795 119.847C224.36 119.136 225.099 118.781 226.01 118.781C227.573 118.781 228.362 119.662 228.375 121.426V126.314H227.111V121.419C227.106 120.886 226.983 120.492 226.741 120.237C226.505 119.981 226.133 119.854 225.627 119.854C225.217 119.854 224.857 119.963 224.547 120.182C224.237 120.401 223.996 120.688 223.823 121.043V126.314H222.558V118.917H223.754ZM235.269 126.314C235.196 126.168 235.137 125.908 235.091 125.534C234.503 126.145 233.801 126.45 232.986 126.45C232.257 126.45 231.657 126.245 231.188 125.835C230.723 125.42 230.491 124.896 230.491 124.263C230.491 123.493 230.782 122.896 231.366 122.472C231.953 122.044 232.778 121.829 233.84 121.829H235.071V121.248C235.071 120.806 234.939 120.455 234.674 120.196C234.41 119.931 234.02 119.799 233.505 119.799C233.054 119.799 232.676 119.913 232.37 120.141C232.065 120.369 231.912 120.644 231.912 120.968H230.641C230.641 120.599 230.771 120.243 231.031 119.902C231.295 119.555 231.65 119.282 232.097 119.081C232.548 118.881 233.043 118.781 233.58 118.781C234.433 118.781 235.1 118.995 235.583 119.423C236.066 119.847 236.317 120.433 236.335 121.18V124.584C236.335 125.263 236.422 125.803 236.595 126.204V126.314H235.269ZM233.17 125.35C233.567 125.35 233.943 125.247 234.298 125.042C234.654 124.837 234.911 124.571 235.071 124.242V122.725H234.079C232.53 122.725 231.755 123.178 231.755 124.085C231.755 124.482 231.887 124.792 232.152 125.015C232.416 125.238 232.756 125.35 233.17 125.35ZM239.927 118.917L239.961 119.738C240.504 119.1 241.235 118.781 242.156 118.781C243.19 118.781 243.894 119.177 244.268 119.97C244.514 119.615 244.833 119.327 245.225 119.109C245.622 118.89 246.089 118.781 246.626 118.781C248.249 118.781 249.074 119.64 249.101 121.358V126.314H247.836V121.433C247.836 120.904 247.716 120.51 247.474 120.25C247.233 119.986 246.827 119.854 246.257 119.854C245.788 119.854 245.398 119.995 245.088 120.278C244.778 120.556 244.598 120.932 244.548 121.406V126.314H243.277V121.467C243.277 120.392 242.75 119.854 241.698 119.854C240.868 119.854 240.301 120.207 239.996 120.913V126.314H238.731V118.917H239.927ZM251.462 125.651C251.462 125.432 251.526 125.25 251.654 125.104C251.786 124.958 251.982 124.885 252.242 124.885C252.501 124.885 252.697 124.958 252.83 125.104C252.966 125.25 253.035 125.432 253.035 125.651C253.035 125.86 252.966 126.036 252.83 126.177C252.697 126.318 252.501 126.389 252.242 126.389C251.982 126.389 251.786 126.318 251.654 126.177C251.526 126.036 251.462 125.86 251.462 125.651ZM265.263 121.713H260.95V125.24H265.961V126.314H259.637V116.361H265.892V117.441H260.95V120.64H265.263V121.713ZM272.26 125.582C271.767 126.161 271.045 126.45 270.093 126.45C269.304 126.45 268.703 126.223 268.288 125.767C267.878 125.307 267.67 124.628 267.666 123.73V118.917H268.93V123.696C268.93 124.817 269.386 125.377 270.298 125.377C271.264 125.377 271.906 125.017 272.225 124.297V118.917H273.49V126.314H272.287L272.26 125.582ZM284.297 125.582C283.805 126.161 283.082 126.45 282.13 126.45C281.341 126.45 280.74 126.223 280.325 125.767C279.915 125.307 279.708 124.628 279.703 123.73V118.917H280.968V123.696C280.968 124.817 281.423 125.377 282.335 125.377C283.301 125.377 283.944 125.017 284.263 124.297V118.917H285.527V126.314H284.324L284.297 125.582ZM292.182 124.352C292.182 124.01 292.052 123.746 291.792 123.559C291.537 123.367 291.088 123.203 290.445 123.067C289.807 122.93 289.299 122.766 288.921 122.574C288.547 122.383 288.269 122.155 288.087 121.891C287.909 121.627 287.82 121.312 287.82 120.948C287.82 120.341 288.076 119.829 288.586 119.409C289.101 118.99 289.757 118.781 290.555 118.781C291.393 118.781 292.072 118.997 292.592 119.43C293.116 119.863 293.378 120.417 293.378 121.091H292.106C292.106 120.745 291.958 120.446 291.662 120.196C291.37 119.945 291.001 119.82 290.555 119.82C290.094 119.82 289.734 119.92 289.475 120.12C289.215 120.321 289.085 120.583 289.085 120.906C289.085 121.212 289.206 121.442 289.447 121.597C289.689 121.752 290.124 121.9 290.753 122.041C291.386 122.183 291.899 122.351 292.291 122.547C292.683 122.743 292.972 122.98 293.159 123.258C293.351 123.531 293.446 123.866 293.446 124.263C293.446 124.924 293.182 125.455 292.653 125.856C292.125 126.252 291.439 126.45 290.596 126.45C290.003 126.45 289.479 126.346 289.023 126.136C288.568 125.926 288.21 125.635 287.95 125.261C287.695 124.883 287.567 124.475 287.567 124.037H288.832C288.855 124.461 289.023 124.798 289.338 125.049C289.657 125.295 290.076 125.418 290.596 125.418C291.074 125.418 291.457 125.323 291.744 125.131C292.036 124.935 292.182 124.675 292.182 124.352ZM300.08 125.582C299.588 126.161 298.866 126.45 297.913 126.45C297.125 126.45 296.523 126.223 296.108 125.767C295.698 125.307 295.491 124.628 295.486 123.73V118.917H296.751V123.696C296.751 124.817 297.207 125.377 298.118 125.377C299.084 125.377 299.727 125.017 300.046 124.297V118.917H301.311V126.314H300.107L300.08 125.582ZM309.991 124.598L311.823 118.917H313.115L310.463 126.314H309.499L306.82 118.917H308.112L309.991 124.598ZM316.126 126.314H314.862V118.917H316.126V126.314ZM314.759 116.955C314.759 116.75 314.821 116.577 314.944 116.436C315.071 116.295 315.258 116.224 315.504 116.224C315.75 116.224 315.937 116.295 316.065 116.436C316.192 116.577 316.256 116.75 316.256 116.955C316.256 117.16 316.192 117.331 316.065 117.468C315.937 117.605 315.75 117.673 315.504 117.673C315.258 117.673 315.071 117.605 314.944 117.468C314.821 117.331 314.759 117.16 314.759 116.955ZM318.269 122.554C318.269 121.419 318.538 120.508 319.076 119.82C319.613 119.127 320.317 118.781 321.188 118.781C322.054 118.781 322.74 119.077 323.246 119.669V115.814H324.51V126.314H323.348L323.287 125.521C322.781 126.141 322.077 126.45 321.174 126.45C320.317 126.45 319.618 126.1 319.076 125.398C318.538 124.696 318.269 123.78 318.269 122.65V122.554ZM319.534 122.698C319.534 123.536 319.707 124.192 320.053 124.666C320.399 125.14 320.878 125.377 321.489 125.377C322.291 125.377 322.876 125.017 323.246 124.297V120.9C322.867 120.202 322.286 119.854 321.502 119.854C320.883 119.854 320.399 120.093 320.053 120.572C319.707 121.05 319.534 121.759 319.534 122.698ZM328.273 126.314H327.008V118.917H328.273V126.314ZM326.906 116.955C326.906 116.75 326.967 116.577 327.09 116.436C327.218 116.295 327.405 116.224 327.651 116.224C327.897 116.224 328.084 116.295 328.211 116.436C328.339 116.577 328.403 116.75 328.403 116.955C328.403 117.16 328.339 117.331 328.211 117.468C328.084 117.605 327.897 117.673 327.651 117.673C327.405 117.673 327.218 117.605 327.09 117.468C326.967 117.331 326.906 117.16 326.906 116.955ZM332.439 117.126V118.917H333.82V119.895H332.439V124.482C332.439 124.778 332.501 125.001 332.624 125.152C332.747 125.297 332.956 125.37 333.253 125.37C333.398 125.37 333.599 125.343 333.854 125.288V126.314C333.521 126.405 333.198 126.45 332.883 126.45C332.318 126.45 331.892 126.28 331.605 125.938C331.318 125.596 331.174 125.111 331.174 124.482V119.895H329.828V118.917H331.174V117.126H332.439ZM341.332 117.126V118.917H342.713V119.895H341.332V124.482C341.332 124.778 341.393 125.001 341.516 125.152C341.639 125.297 341.849 125.37 342.145 125.37C342.291 125.37 342.492 125.343 342.747 125.288V126.314C342.414 126.405 342.091 126.45 341.776 126.45C341.211 126.45 340.785 126.28 340.498 125.938C340.211 125.596 340.067 125.111 340.067 124.482V119.895H338.72V118.917H340.067V117.126H341.332ZM348.191 120.052C348 120.02 347.792 120.004 347.569 120.004C346.74 120.004 346.177 120.357 345.881 121.064V126.314H344.616V118.917H345.846L345.867 119.772C346.282 119.111 346.87 118.781 347.631 118.781C347.877 118.781 348.064 118.812 348.191 118.876V120.052ZM354.073 126.314C354 126.168 353.941 125.908 353.895 125.534C353.307 126.145 352.606 126.45 351.79 126.45C351.061 126.45 350.461 126.245 349.992 125.835C349.527 125.42 349.295 124.896 349.295 124.263C349.295 123.493 349.586 122.896 350.17 122.472C350.758 122.044 351.583 121.829 352.644 121.829H353.875V121.248C353.875 120.806 353.743 120.455 353.478 120.196C353.214 119.931 352.824 119.799 352.309 119.799C351.858 119.799 351.48 119.913 351.175 120.141C350.869 120.369 350.717 120.644 350.717 120.968H349.445C349.445 120.599 349.575 120.243 349.835 119.902C350.099 119.555 350.455 119.282 350.901 119.081C351.352 118.881 351.847 118.781 352.385 118.781C353.237 118.781 353.905 118.995 354.388 119.423C354.871 119.847 355.121 120.433 355.14 121.18V124.584C355.14 125.263 355.226 125.803 355.399 126.204V126.314H354.073ZM351.974 125.35C352.371 125.35 352.747 125.247 353.102 125.042C353.458 124.837 353.715 124.571 353.875 124.242V122.725H352.884C351.334 122.725 350.559 123.178 350.559 124.085C350.559 124.482 350.692 124.792 350.956 125.015C351.22 125.238 351.56 125.35 351.974 125.35ZM360.509 125.418C360.96 125.418 361.354 125.281 361.691 125.008C362.029 124.735 362.215 124.393 362.252 123.983H363.448C363.425 124.406 363.28 124.81 363.011 125.193C362.742 125.575 362.382 125.881 361.931 126.109C361.484 126.337 361.01 126.45 360.509 126.45C359.502 126.45 358.7 126.115 358.103 125.446C357.51 124.771 357.214 123.851 357.214 122.684V122.472C357.214 121.752 357.346 121.112 357.61 120.551C357.875 119.99 358.253 119.555 358.745 119.245C359.242 118.935 359.827 118.781 360.502 118.781C361.331 118.781 362.02 119.029 362.566 119.526C363.118 120.022 363.412 120.667 363.448 121.46H362.252C362.215 120.982 362.033 120.59 361.705 120.284C361.381 119.975 360.98 119.82 360.502 119.82C359.859 119.82 359.36 120.052 359.005 120.517C358.654 120.977 358.478 121.645 358.478 122.52V122.759C358.478 123.611 358.654 124.267 359.005 124.728C359.356 125.188 359.857 125.418 360.509 125.418ZM367.006 117.126V118.917H368.387V119.895H367.006V124.482C367.006 124.778 367.067 125.001 367.19 125.152C367.314 125.297 367.523 125.37 367.819 125.37C367.965 125.37 368.166 125.343 368.421 125.288V126.314C368.088 126.405 367.765 126.45 367.45 126.45C366.885 126.45 366.459 126.28 366.172 125.938C365.885 125.596 365.741 125.111 365.741 124.482V119.895H364.395V118.917H365.741V117.126H367.006ZM374.857 126.314C374.784 126.168 374.724 125.908 374.679 125.534C374.091 126.145 373.389 126.45 372.573 126.45C371.844 126.45 371.245 126.245 370.776 125.835C370.311 125.42 370.078 124.896 370.078 124.263C370.078 123.493 370.37 122.896 370.953 122.472C371.541 122.044 372.366 121.829 373.428 121.829H374.658V121.248C374.658 120.806 374.526 120.455 374.262 120.196C373.998 119.931 373.608 119.799 373.093 119.799C372.642 119.799 372.263 119.913 371.958 120.141C371.653 120.369 371.5 120.644 371.5 120.968H370.229C370.229 120.599 370.359 120.243 370.618 119.902C370.883 119.555 371.238 119.282 371.685 119.081C372.136 118.881 372.63 118.781 373.168 118.781C374.02 118.781 374.688 118.995 375.171 119.423C375.654 119.847 375.905 120.433 375.923 121.18V124.584C375.923 125.263 376.01 125.803 376.183 126.204V126.314H374.857ZM372.758 125.35C373.154 125.35 373.53 125.247 373.886 125.042C374.241 124.837 374.499 124.571 374.658 124.242V122.725H373.667C372.118 122.725 371.343 123.178 371.343 124.085C371.343 124.482 371.475 124.792 371.739 125.015C372.004 125.238 372.343 125.35 372.758 125.35ZM380.041 117.126V118.917H381.422V119.895H380.041V124.482C380.041 124.778 380.103 125.001 380.226 125.152C380.349 125.297 380.558 125.37 380.855 125.37C381.001 125.37 381.201 125.343 381.456 125.288V126.314C381.124 126.405 380.8 126.45 380.486 126.45C379.92 126.45 379.494 126.28 379.207 125.938C378.92 125.596 378.777 125.111 378.777 124.482V119.895H377.43V118.917H378.777V117.126H380.041ZM382.854 122.547C382.854 121.823 382.995 121.171 383.278 120.592C383.565 120.013 383.961 119.567 384.467 119.252C384.977 118.938 385.559 118.781 386.21 118.781C387.217 118.781 388.031 119.129 388.651 119.826C389.275 120.524 389.587 121.451 389.587 122.609V122.698C389.587 123.418 389.448 124.065 389.17 124.639C388.897 125.209 388.503 125.653 387.988 125.972C387.477 126.291 386.889 126.45 386.224 126.45C385.221 126.45 384.408 126.102 383.783 125.405C383.164 124.707 382.854 123.784 382.854 122.636V122.547ZM384.125 122.698C384.125 123.518 384.314 124.176 384.693 124.673C385.075 125.17 385.586 125.418 386.224 125.418C386.866 125.418 387.377 125.168 387.755 124.666C388.133 124.16 388.323 123.454 388.323 122.547C388.323 121.736 388.129 121.08 387.741 120.578C387.359 120.073 386.848 119.82 386.21 119.82C385.586 119.82 385.082 120.068 384.699 120.565C384.317 121.061 384.125 121.772 384.125 122.698ZM395.9 124.352C395.9 124.01 395.77 123.746 395.51 123.559C395.255 123.367 394.806 123.203 394.163 123.067C393.525 122.93 393.017 122.766 392.639 122.574C392.265 122.383 391.987 122.155 391.805 121.891C391.627 121.627 391.538 121.312 391.538 120.948C391.538 120.341 391.794 119.829 392.304 119.409C392.819 118.99 393.475 118.781 394.273 118.781C395.111 118.781 395.79 118.997 396.31 119.43C396.834 119.863 397.096 120.417 397.096 121.091H395.825C395.825 120.745 395.676 120.446 395.38 120.196C395.089 119.945 394.719 119.82 394.273 119.82C393.813 119.82 393.453 119.92 393.193 120.12C392.933 120.321 392.803 120.583 392.803 120.906C392.803 121.212 392.924 121.442 393.165 121.597C393.407 121.752 393.842 121.9 394.471 122.041C395.105 122.183 395.617 122.351 396.009 122.547C396.401 122.743 396.69 122.98 396.877 123.258C397.069 123.531 397.164 123.866 397.164 124.263C397.164 124.924 396.9 125.455 396.371 125.856C395.843 126.252 395.157 126.45 394.314 126.45C393.721 126.45 393.197 126.346 392.742 126.136C392.286 125.926 391.928 125.635 391.668 125.261C391.413 124.883 391.286 124.475 391.286 124.037H392.55C392.573 124.461 392.742 124.798 393.056 125.049C393.375 125.295 393.794 125.418 394.314 125.418C394.792 125.418 395.175 125.323 395.462 125.131C395.754 124.935 395.9 124.675 395.9 124.352ZM399.191 128.296L398.473 127.804C398.901 127.207 399.125 126.592 399.143 125.958V124.817H400.38V125.808C400.38 126.268 400.266 126.728 400.039 127.189C399.815 127.649 399.533 128.018 399.191 128.296ZM122.397 150.598L124.229 144.917H125.521L122.869 152.314H121.905L119.226 144.917H120.518L122.397 150.598ZM130.132 152.45C129.129 152.45 128.314 152.122 127.685 151.466C127.056 150.805 126.741 149.923 126.741 148.821V148.588C126.741 147.854 126.88 147.2 127.158 146.626C127.441 146.047 127.833 145.596 128.334 145.273C128.84 144.945 129.387 144.781 129.975 144.781C130.936 144.781 131.684 145.097 132.217 145.731C132.75 146.364 133.017 147.271 133.017 148.451V148.978H128.006C128.024 149.707 128.236 150.297 128.642 150.748C129.052 151.195 129.571 151.418 130.2 151.418C130.647 151.418 131.025 151.327 131.335 151.145C131.645 150.962 131.916 150.721 132.149 150.42L132.921 151.022C132.301 151.974 131.371 152.45 130.132 152.45ZM129.975 145.82C129.464 145.82 129.036 146.006 128.69 146.38C128.343 146.749 128.129 147.269 128.047 147.939H131.752V147.843C131.716 147.2 131.542 146.704 131.233 146.353C130.923 145.997 130.503 145.82 129.975 145.82ZM138.482 146.052C138.29 146.02 138.083 146.004 137.86 146.004C137.03 146.004 136.467 146.357 136.171 147.064V152.314H134.906V144.917H136.137L136.157 145.772C136.572 145.111 137.16 144.781 137.921 144.781C138.167 144.781 138.354 144.812 138.482 144.876V146.052ZM139.599 148.547C139.599 147.823 139.74 147.171 140.023 146.592C140.31 146.013 140.706 145.567 141.212 145.252C141.723 144.938 142.304 144.781 142.955 144.781C143.962 144.781 144.776 145.129 145.396 145.826C146.02 146.524 146.332 147.451 146.332 148.609V148.698C146.332 149.418 146.193 150.065 145.915 150.639C145.642 151.209 145.248 151.653 144.733 151.972C144.222 152.291 143.634 152.45 142.969 152.45C141.966 152.45 141.153 152.102 140.529 151.405C139.909 150.707 139.599 149.784 139.599 148.636V148.547ZM140.87 148.698C140.87 149.518 141.059 150.176 141.438 150.673C141.821 151.17 142.331 151.418 142.969 151.418C143.612 151.418 144.122 151.168 144.5 150.666C144.878 150.16 145.068 149.454 145.068 148.547C145.068 147.736 144.874 147.08 144.487 146.578C144.104 146.073 143.593 145.82 142.955 145.82C142.331 145.82 141.827 146.068 141.445 146.565C141.062 147.061 140.87 147.772 140.87 148.698ZM153.947 143.126V144.917H155.328V145.895H153.947V150.482C153.947 150.778 154.008 151.001 154.131 151.152C154.254 151.297 154.464 151.37 154.76 151.37C154.906 151.37 155.107 151.343 155.362 151.288V152.314C155.029 152.405 154.705 152.45 154.391 152.45C153.826 152.45 153.4 152.28 153.113 151.938C152.826 151.596 152.682 151.111 152.682 150.482V145.895H151.335V144.917H152.682V143.126H153.947ZM160.806 146.052C160.615 146.02 160.407 146.004 160.184 146.004C159.355 146.004 158.792 146.357 158.496 147.064V152.314H157.231V144.917H158.461L158.482 145.772C158.897 145.111 159.485 144.781 160.246 144.781C160.492 144.781 160.679 144.812 160.806 144.876V146.052ZM166.688 152.314C166.615 152.168 166.556 151.908 166.51 151.534C165.922 152.145 165.221 152.45 164.405 152.45C163.676 152.45 163.076 152.245 162.607 151.835C162.142 151.42 161.91 150.896 161.91 150.263C161.91 149.493 162.201 148.896 162.785 148.472C163.373 148.044 164.197 147.829 165.259 147.829H166.49V147.248C166.49 146.806 166.358 146.455 166.093 146.196C165.829 145.931 165.439 145.799 164.924 145.799C164.473 145.799 164.095 145.913 163.79 146.141C163.484 146.369 163.332 146.644 163.332 146.968H162.06C162.06 146.599 162.19 146.243 162.45 145.902C162.714 145.555 163.07 145.282 163.516 145.081C163.967 144.881 164.462 144.781 165 144.781C165.852 144.781 166.519 144.995 167.003 145.423C167.486 145.847 167.736 146.433 167.754 147.18V150.584C167.754 151.263 167.841 151.803 168.014 152.204V152.314H166.688ZM164.589 151.35C164.986 151.35 165.362 151.247 165.717 151.042C166.073 150.837 166.33 150.571 166.49 150.242V148.725H165.499C163.949 148.725 163.174 149.178 163.174 150.085C163.174 150.482 163.307 150.792 163.571 151.015C163.835 151.238 164.175 151.35 164.589 151.35ZM173.124 151.418C173.575 151.418 173.969 151.281 174.306 151.008C174.644 150.735 174.83 150.393 174.867 149.983H176.063C176.04 150.406 175.895 150.81 175.626 151.193C175.357 151.575 174.997 151.881 174.546 152.109C174.099 152.337 173.625 152.45 173.124 152.45C172.117 152.45 171.314 152.115 170.717 151.446C170.125 150.771 169.829 149.851 169.829 148.684V148.472C169.829 147.752 169.961 147.112 170.225 146.551C170.49 145.99 170.868 145.555 171.36 145.245C171.857 144.935 172.442 144.781 173.117 144.781C173.946 144.781 174.634 145.029 175.181 145.526C175.733 146.022 176.027 146.667 176.063 147.46H174.867C174.83 146.982 174.648 146.59 174.32 146.284C173.996 145.975 173.595 145.82 173.117 145.82C172.474 145.82 171.975 146.052 171.62 146.517C171.269 146.977 171.093 147.645 171.093 148.52V148.759C171.093 149.611 171.269 150.267 171.62 150.728C171.971 151.188 172.472 151.418 173.124 151.418ZM179.621 143.126V144.917H181.002V145.895H179.621V150.482C179.621 150.778 179.682 151.001 179.805 151.152C179.928 151.297 180.138 151.37 180.434 151.37C180.58 151.37 180.781 151.343 181.036 151.288V152.314C180.703 152.405 180.38 152.45 180.065 152.45C179.5 152.45 179.074 152.28 178.787 151.938C178.5 151.596 178.356 151.111 178.356 150.482V145.895H177.009V144.917H178.356V143.126H179.621ZM187.471 152.314C187.399 152.168 187.339 151.908 187.294 151.534C186.706 152.145 186.004 152.45 185.188 152.45C184.459 152.45 183.86 152.245 183.39 151.835C182.926 151.42 182.693 150.896 182.693 150.263C182.693 149.493 182.985 148.896 183.568 148.472C184.156 148.044 184.981 147.829 186.043 147.829H187.273V147.248C187.273 146.806 187.141 146.455 186.877 146.196C186.612 145.931 186.223 145.799 185.708 145.799C185.257 145.799 184.878 145.913 184.573 146.141C184.268 146.369 184.115 146.644 184.115 146.968H182.844C182.844 146.599 182.973 146.243 183.233 145.902C183.498 145.555 183.853 145.282 184.3 145.081C184.751 144.881 185.245 144.781 185.783 144.781C186.635 144.781 187.303 144.995 187.786 145.423C188.269 145.847 188.52 146.433 188.538 147.18V150.584C188.538 151.263 188.624 151.803 188.798 152.204V152.314H187.471ZM185.373 151.35C185.769 151.35 186.145 151.247 186.501 151.042C186.856 150.837 187.114 150.571 187.273 150.242V148.725H186.282C184.733 148.725 183.958 149.178 183.958 150.085C183.958 150.482 184.09 150.792 184.354 151.015C184.619 151.238 184.958 151.35 185.373 151.35ZM192.656 143.126V144.917H194.037V145.895H192.656V150.482C192.656 150.778 192.718 151.001 192.841 151.152C192.964 151.297 193.173 151.37 193.47 151.37C193.615 151.37 193.816 151.343 194.071 151.288V152.314C193.738 152.405 193.415 152.45 193.1 152.45C192.535 152.45 192.109 152.28 191.822 151.938C191.535 151.596 191.391 151.111 191.391 150.482V145.895H190.045V144.917H191.391V143.126H192.656ZM195.469 148.547C195.469 147.823 195.61 147.171 195.893 146.592C196.18 146.013 196.576 145.567 197.082 145.252C197.592 144.938 198.173 144.781 198.825 144.781C199.832 144.781 200.646 145.129 201.266 145.826C201.89 146.524 202.202 147.451 202.202 148.609V148.698C202.202 149.418 202.063 150.065 201.785 150.639C201.512 151.209 201.117 151.653 200.603 151.972C200.092 152.291 199.504 152.45 198.839 152.45C197.836 152.45 197.023 152.102 196.398 151.405C195.779 150.707 195.469 149.784 195.469 148.636V148.547ZM196.74 148.698C196.74 149.518 196.929 150.176 197.308 150.673C197.69 151.17 198.201 151.418 198.839 151.418C199.481 151.418 199.992 151.168 200.37 150.666C200.748 150.16 200.937 149.454 200.937 148.547C200.937 147.736 200.744 147.08 200.356 146.578C199.974 146.073 199.463 145.82 198.825 145.82C198.201 145.82 197.697 146.068 197.314 146.565C196.932 147.061 196.74 147.772 196.74 148.698ZM208.515 150.352C208.515 150.01 208.385 149.746 208.125 149.559C207.87 149.367 207.421 149.203 206.778 149.067C206.14 148.93 205.632 148.766 205.254 148.574C204.88 148.383 204.602 148.155 204.42 147.891C204.242 147.627 204.153 147.312 204.153 146.948C204.153 146.341 204.409 145.829 204.919 145.409C205.434 144.99 206.09 144.781 206.888 144.781C207.726 144.781 208.405 144.997 208.925 145.43C209.449 145.863 209.711 146.417 209.711 147.091H208.439C208.439 146.745 208.291 146.446 207.995 146.196C207.703 145.945 207.334 145.82 206.888 145.82C206.427 145.82 206.067 145.92 205.808 146.12C205.548 146.321 205.418 146.583 205.418 146.906C205.418 147.212 205.539 147.442 205.78 147.597C206.022 147.752 206.457 147.9 207.086 148.041C207.719 148.183 208.232 148.351 208.624 148.547C209.016 148.743 209.305 148.98 209.492 149.258C209.684 149.531 209.779 149.866 209.779 150.263C209.779 150.924 209.515 151.455 208.986 151.856C208.458 152.252 207.772 152.45 206.929 152.45C206.336 152.45 205.812 152.346 205.356 152.136C204.901 151.926 204.543 151.635 204.283 151.261C204.028 150.883 203.9 150.475 203.9 150.037H205.165C205.188 150.461 205.356 150.798 205.671 151.049C205.99 151.295 206.409 151.418 206.929 151.418C207.407 151.418 207.79 151.323 208.077 151.131C208.369 150.935 208.515 150.675 208.515 150.352ZM217.113 152.314H215.849V144.917H217.113V152.314ZM215.746 142.955C215.746 142.75 215.808 142.577 215.931 142.436C216.058 142.295 216.245 142.224 216.491 142.224C216.738 142.224 216.924 142.295 217.052 142.436C217.18 142.577 217.243 142.75 217.243 142.955C217.243 143.16 217.18 143.331 217.052 143.468C216.924 143.605 216.738 143.673 216.491 143.673C216.245 143.673 216.058 143.605 215.931 143.468C215.808 143.331 215.746 143.16 215.746 142.955ZM224.13 151.582C223.638 152.161 222.916 152.45 221.963 152.45C221.175 152.45 220.573 152.223 220.158 151.767C219.748 151.307 219.541 150.628 219.536 149.73V144.917H220.801V149.696C220.801 150.817 221.257 151.377 222.168 151.377C223.134 151.377 223.777 151.017 224.096 150.297V144.917H225.361V152.314H224.158L224.13 151.582ZM232.015 150.352C232.015 150.01 231.885 149.746 231.625 149.559C231.37 149.367 230.921 149.203 230.279 149.067C229.641 148.93 229.133 148.766 228.754 148.574C228.381 148.383 228.103 148.155 227.92 147.891C227.743 147.627 227.654 147.312 227.654 146.948C227.654 146.341 227.909 145.829 228.419 145.409C228.934 144.99 229.591 144.781 230.388 144.781C231.227 144.781 231.906 144.997 232.425 145.43C232.949 145.863 233.211 146.417 233.211 147.091H231.94C231.94 146.745 231.792 146.446 231.495 146.196C231.204 145.945 230.835 145.82 230.388 145.82C229.928 145.82 229.568 145.92 229.308 146.12C229.048 146.321 228.918 146.583 228.918 146.906C228.918 147.212 229.039 147.442 229.281 147.597C229.522 147.752 229.957 147.9 230.586 148.041C231.22 148.183 231.732 148.351 232.124 148.547C232.516 148.743 232.806 148.98 232.993 149.258C233.184 149.531 233.28 149.866 233.28 150.263C233.28 150.924 233.015 151.455 232.487 151.856C231.958 152.252 231.272 152.45 230.429 152.45C229.837 152.45 229.313 152.346 228.857 152.136C228.401 151.926 228.043 151.635 227.784 151.261C227.528 150.883 227.401 150.475 227.401 150.037H228.665C228.688 150.461 228.857 150.798 229.171 151.049C229.49 151.295 229.91 151.418 230.429 151.418C230.908 151.418 231.29 151.323 231.577 151.131C231.869 150.935 232.015 150.675 232.015 150.352ZM243.806 152.314C243.733 152.168 243.674 151.908 243.628 151.534C243.041 152.145 242.339 152.45 241.523 152.45C240.794 152.45 240.195 152.245 239.725 151.835C239.26 151.42 239.028 150.896 239.028 150.263C239.028 149.493 239.32 148.896 239.903 148.472C240.491 148.044 241.316 147.829 242.377 147.829H243.608V147.248C243.608 146.806 243.476 146.455 243.211 146.196C242.947 145.931 242.557 145.799 242.043 145.799C241.591 145.799 241.213 145.913 240.908 146.141C240.602 146.369 240.45 146.644 240.45 146.968H239.178C239.178 146.599 239.308 146.243 239.568 145.902C239.832 145.555 240.188 145.282 240.634 145.081C241.085 144.881 241.58 144.781 242.118 144.781C242.97 144.781 243.638 144.995 244.121 145.423C244.604 145.847 244.854 146.433 244.873 147.18V150.584C244.873 151.263 244.959 151.803 245.132 152.204V152.314H243.806ZM241.708 151.35C242.104 151.35 242.48 151.247 242.835 151.042C243.191 150.837 243.448 150.571 243.608 150.242V148.725H242.617C241.067 148.725 240.293 149.178 240.293 150.085C240.293 150.482 240.425 150.792 240.689 151.015C240.953 151.238 241.293 151.35 241.708 151.35ZM248.471 144.917L248.512 145.847C249.077 145.136 249.816 144.781 250.727 144.781C252.29 144.781 253.079 145.662 253.092 147.426V152.314H251.828V147.419C251.823 146.886 251.7 146.492 251.459 146.237C251.222 145.981 250.85 145.854 250.344 145.854C249.934 145.854 249.574 145.963 249.264 146.182C248.954 146.401 248.713 146.688 248.54 147.043V152.314H247.275V144.917H248.471ZM255.379 154.296L254.661 153.804C255.089 153.207 255.313 152.592 255.331 151.958V150.817H256.568V151.808C256.568 152.268 256.454 152.728 256.226 153.189C256.003 153.649 255.72 154.018 255.379 154.296ZM263.854 152.314H262.59V144.917H263.854V152.314ZM262.487 142.955C262.487 142.75 262.549 142.577 262.672 142.436C262.799 142.295 262.986 142.224 263.232 142.224C263.478 142.224 263.665 142.295 263.793 142.436C263.92 142.577 263.984 142.75 263.984 142.955C263.984 143.16 263.92 143.331 263.793 143.468C263.665 143.605 263.478 143.673 263.232 143.673C262.986 143.673 262.799 143.605 262.672 143.468C262.549 143.331 262.487 143.16 262.487 142.955ZM267.501 144.917L267.542 145.847C268.107 145.136 268.845 144.781 269.757 144.781C271.32 144.781 272.108 145.662 272.122 147.426V152.314H270.857V147.419C270.853 146.886 270.73 146.492 270.488 146.237C270.251 145.981 269.88 145.854 269.374 145.854C268.964 145.854 268.604 145.963 268.294 146.182C267.984 146.401 267.742 146.688 267.569 147.043V152.314H266.305V144.917H267.501ZM279.531 144.917L279.566 145.738C280.108 145.1 280.839 144.781 281.76 144.781C282.794 144.781 283.498 145.177 283.872 145.97C284.118 145.615 284.437 145.327 284.829 145.109C285.226 144.89 285.693 144.781 286.231 144.781C287.853 144.781 288.678 145.64 288.705 147.358V152.314H287.441V147.433C287.441 146.904 287.32 146.51 287.078 146.25C286.837 145.986 286.431 145.854 285.861 145.854C285.392 145.854 285.002 145.995 284.692 146.278C284.383 146.556 284.203 146.932 284.152 147.406V152.314H282.881V147.467C282.881 146.392 282.355 145.854 281.302 145.854C280.472 145.854 279.905 146.207 279.6 146.913V152.314H278.335V144.917H279.531ZM294.109 152.45C293.106 152.45 292.29 152.122 291.661 151.466C291.032 150.805 290.718 149.923 290.718 148.821V148.588C290.718 147.854 290.857 147.2 291.135 146.626C291.417 146.047 291.809 145.596 292.311 145.273C292.817 144.945 293.363 144.781 293.951 144.781C294.913 144.781 295.66 145.097 296.194 145.731C296.727 146.364 296.993 147.271 296.993 148.451V148.978H291.983C292.001 149.707 292.213 150.297 292.618 150.748C293.028 151.195 293.548 151.418 294.177 151.418C294.624 151.418 295.002 151.327 295.312 151.145C295.622 150.962 295.893 150.721 296.125 150.42L296.898 151.022C296.278 151.974 295.348 152.45 294.109 152.45ZM293.951 145.82C293.441 145.82 293.013 146.006 292.666 146.38C292.32 146.749 292.106 147.269 292.024 147.939H295.729V147.843C295.692 147.2 295.519 146.704 295.209 146.353C294.899 145.997 294.48 145.82 293.951 145.82ZM300.257 152.314H298.992V141.814H300.257V152.314ZM306.292 148.554C306.292 147.419 306.561 146.508 307.099 145.82C307.637 145.127 308.341 144.781 309.211 144.781C310.077 144.781 310.763 145.077 311.269 145.669V141.814H312.534V152.314H311.371L311.31 151.521C310.804 152.141 310.1 152.45 309.198 152.45C308.341 152.45 307.641 152.1 307.099 151.398C306.561 150.696 306.292 149.78 306.292 148.65V148.554ZM307.557 148.698C307.557 149.536 307.73 150.192 308.077 150.666C308.423 151.14 308.901 151.377 309.512 151.377C310.314 151.377 310.9 151.017 311.269 150.297V146.9C310.891 146.202 310.31 145.854 309.526 145.854C308.906 145.854 308.423 146.093 308.077 146.572C307.73 147.05 307.557 147.759 307.557 148.698ZM316.296 152.314H315.032V144.917H316.296V152.314ZM314.929 142.955C314.929 142.75 314.991 142.577 315.114 142.436C315.241 142.295 315.428 142.224 315.674 142.224C315.92 142.224 316.107 142.295 316.235 142.436C316.362 142.577 316.426 142.75 316.426 142.955C316.426 143.16 316.362 143.331 316.235 143.468C316.107 143.605 315.92 143.673 315.674 143.673C315.428 143.673 315.241 143.605 315.114 143.468C314.991 143.331 314.929 143.16 314.929 142.955ZM321.713 151.418C322.165 151.418 322.559 151.281 322.896 151.008C323.233 150.735 323.42 150.393 323.457 149.983H324.653C324.63 150.406 324.484 150.81 324.215 151.193C323.947 151.575 323.586 151.881 323.135 152.109C322.689 152.337 322.215 152.45 321.713 152.45C320.706 152.45 319.904 152.115 319.307 151.446C318.715 150.771 318.419 149.851 318.419 148.684V148.472C318.419 147.752 318.551 147.112 318.815 146.551C319.079 145.99 319.458 145.555 319.95 145.245C320.447 144.935 321.032 144.781 321.707 144.781C322.536 144.781 323.224 145.029 323.771 145.526C324.322 146.022 324.616 146.667 324.653 147.46H323.457C323.42 146.982 323.238 146.59 322.91 146.284C322.586 145.975 322.185 145.82 321.707 145.82C321.064 145.82 320.565 146.052 320.21 146.517C319.859 146.977 319.683 147.645 319.683 148.52V148.759C319.683 149.611 319.859 150.267 320.21 150.728C320.56 151.188 321.062 151.418 321.713 151.418ZM329.564 152.45C328.561 152.45 327.746 152.122 327.117 151.466C326.488 150.805 326.173 149.923 326.173 148.821V148.588C326.173 147.854 326.312 147.2 326.59 146.626C326.873 146.047 327.265 145.596 327.766 145.273C328.272 144.945 328.819 144.781 329.407 144.781C330.368 144.781 331.116 145.097 331.649 145.731C332.182 146.364 332.449 147.271 332.449 148.451V148.978H327.438C327.456 149.707 327.668 150.297 328.074 150.748C328.484 151.195 329.004 151.418 329.632 151.418C330.079 151.418 330.457 151.327 330.767 151.145C331.077 150.962 331.348 150.721 331.581 150.42L332.353 151.022C331.733 151.974 330.804 152.45 329.564 152.45ZM329.407 145.82C328.896 145.82 328.468 146.006 328.122 146.38C327.775 146.749 327.561 147.269 327.479 147.939H331.184V147.843C331.148 147.2 330.975 146.704 330.665 146.353C330.355 145.997 329.936 145.82 329.407 145.82ZM337.914 146.052C337.722 146.02 337.515 146.004 337.292 146.004C336.462 146.004 335.899 146.357 335.603 147.064V152.314H334.339V144.917H335.569L335.59 145.772C336.004 145.111 336.592 144.781 337.353 144.781C337.599 144.781 337.786 144.812 337.914 144.876V146.052ZM342.435 152.45C341.433 152.45 340.617 152.122 339.988 151.466C339.359 150.805 339.045 149.923 339.045 148.821V148.588C339.045 147.854 339.184 147.2 339.462 146.626C339.744 146.047 340.136 145.596 340.637 145.273C341.143 144.945 341.69 144.781 342.278 144.781C343.24 144.781 343.987 145.097 344.52 145.731C345.054 146.364 345.32 147.271 345.32 148.451V148.978H340.309C340.328 149.707 340.54 150.297 340.945 150.748C341.355 151.195 341.875 151.418 342.504 151.418C342.95 151.418 343.329 151.327 343.638 151.145C343.948 150.962 344.22 150.721 344.452 150.42L345.224 151.022C344.605 151.974 343.675 152.45 342.435 152.45ZM342.278 145.82C341.768 145.82 341.339 146.006 340.993 146.38C340.647 146.749 340.432 147.269 340.35 147.939H344.055V147.843C344.019 147.2 343.846 146.704 343.536 146.353C343.226 145.997 342.807 145.82 342.278 145.82ZM348.926 143.126V144.917H350.307V145.895H348.926V150.482C348.926 150.778 348.987 151.001 349.11 151.152C349.233 151.297 349.443 151.37 349.739 151.37C349.885 151.37 350.085 151.343 350.341 151.288V152.314C350.008 152.405 349.684 152.45 349.37 152.45C348.805 152.45 348.379 152.28 348.092 151.938C347.805 151.596 347.661 151.111 347.661 150.482V145.895H346.314V144.917H347.661V143.126H348.926ZM126.205 175.698C126.205 176.823 125.948 177.73 125.433 178.418C124.918 179.106 124.22 179.45 123.341 179.45C122.443 179.45 121.737 179.166 121.222 178.596V182.157H119.957V171.917H121.112L121.174 172.738C121.689 172.1 122.404 171.781 123.32 171.781C124.209 171.781 124.911 172.115 125.426 172.785C125.945 173.455 126.205 174.387 126.205 175.581V175.698ZM124.94 175.554C124.94 174.72 124.763 174.061 124.407 173.578C124.052 173.095 123.564 172.854 122.944 172.854C122.179 172.854 121.604 173.193 121.222 173.872V177.406C121.6 178.081 122.179 178.418 122.958 178.418C123.564 178.418 124.045 178.179 124.4 177.7C124.76 177.217 124.94 176.502 124.94 175.554ZM131.308 179.45C130.305 179.45 129.489 179.122 128.86 178.466C128.232 177.805 127.917 176.923 127.917 175.821V175.588C127.917 174.854 128.056 174.2 128.334 173.626C128.617 173.047 129.009 172.596 129.51 172.273C130.016 171.945 130.563 171.781 131.15 171.781C132.112 171.781 132.859 172.097 133.393 172.731C133.926 173.364 134.192 174.271 134.192 175.451V175.978H129.182C129.2 176.707 129.412 177.297 129.817 177.748C130.228 178.195 130.747 178.418 131.376 178.418C131.823 178.418 132.201 178.327 132.511 178.145C132.821 177.962 133.092 177.721 133.324 177.42L134.097 178.022C133.477 178.974 132.547 179.45 131.308 179.45ZM131.15 172.82C130.64 172.82 130.212 173.006 129.865 173.38C129.519 173.749 129.305 174.269 129.223 174.939H132.928V174.843C132.891 174.2 132.718 173.704 132.408 173.353C132.098 172.997 131.679 172.82 131.15 172.82ZM139.657 173.052C139.466 173.02 139.259 173.004 139.035 173.004C138.206 173.004 137.643 173.357 137.347 174.064V179.314H136.082V171.917H137.313L137.333 172.772C137.748 172.111 138.336 171.781 139.097 171.781C139.343 171.781 139.53 171.812 139.657 171.876V173.052ZM145.553 177.352C145.553 177.01 145.423 176.746 145.163 176.559C144.908 176.367 144.459 176.203 143.817 176.067C143.179 175.93 142.67 175.766 142.292 175.574C141.919 175.383 141.641 175.155 141.458 174.891C141.281 174.627 141.192 174.312 141.192 173.948C141.192 173.341 141.447 172.829 141.957 172.409C142.472 171.99 143.128 171.781 143.926 171.781C144.765 171.781 145.444 171.997 145.963 172.43C146.487 172.863 146.749 173.417 146.749 174.091H145.478C145.478 173.745 145.33 173.446 145.033 173.196C144.742 172.945 144.373 172.82 143.926 172.82C143.466 172.82 143.106 172.92 142.846 173.12C142.586 173.321 142.456 173.583 142.456 173.906C142.456 174.212 142.577 174.442 142.819 174.597C143.06 174.752 143.495 174.9 144.124 175.041C144.758 175.183 145.27 175.351 145.662 175.547C146.054 175.743 146.344 175.98 146.531 176.258C146.722 176.531 146.818 176.866 146.818 177.263C146.818 177.924 146.553 178.455 146.025 178.856C145.496 179.252 144.81 179.45 143.967 179.45C143.375 179.45 142.85 179.346 142.395 179.136C141.939 178.926 141.581 178.635 141.322 178.261C141.066 177.883 140.939 177.475 140.939 177.037H142.203C142.226 177.461 142.395 177.798 142.709 178.049C143.028 178.295 143.448 178.418 143.967 178.418C144.446 178.418 144.828 178.323 145.115 178.131C145.407 177.935 145.553 177.675 145.553 177.352ZM151.954 179.45C150.952 179.45 150.136 179.122 149.507 178.466C148.878 177.805 148.564 176.923 148.564 175.821V175.588C148.564 174.854 148.703 174.2 148.981 173.626C149.263 173.047 149.655 172.596 150.157 172.273C150.662 171.945 151.209 171.781 151.797 171.781C152.759 171.781 153.506 172.097 154.039 172.731C154.573 173.364 154.839 174.271 154.839 175.451V175.978H149.828C149.847 176.707 150.059 177.297 150.464 177.748C150.874 178.195 151.394 178.418 152.023 178.418C152.469 178.418 152.848 178.327 153.158 178.145C153.467 177.962 153.739 177.721 153.971 177.42L154.743 178.022C154.124 178.974 153.194 179.45 151.954 179.45ZM151.797 172.82C151.287 172.82 150.858 173.006 150.512 173.38C150.166 173.749 149.951 174.269 149.869 174.939H153.575V174.843C153.538 174.2 153.365 173.704 153.055 173.353C152.745 172.997 152.326 172.82 151.797 172.82ZM159.696 178.418C160.147 178.418 160.541 178.281 160.878 178.008C161.216 177.735 161.402 177.393 161.439 176.983H162.635C162.612 177.406 162.467 177.81 162.198 178.193C161.929 178.575 161.569 178.881 161.118 179.109C160.671 179.337 160.197 179.45 159.696 179.45C158.689 179.45 157.886 179.115 157.289 178.446C156.697 177.771 156.401 176.851 156.401 175.684V175.472C156.401 174.752 156.533 174.112 156.797 173.551C157.062 172.99 157.44 172.555 157.932 172.245C158.429 171.935 159.014 171.781 159.689 171.781C160.518 171.781 161.206 172.029 161.753 172.526C162.305 173.022 162.599 173.667 162.635 174.46H161.439C161.402 173.982 161.22 173.59 160.892 173.284C160.568 172.975 160.167 172.82 159.689 172.82C159.046 172.82 158.547 173.052 158.192 173.517C157.841 173.977 157.665 174.645 157.665 175.52V175.759C157.665 176.611 157.841 177.267 158.192 177.728C158.543 178.188 159.044 178.418 159.696 178.418ZM169.043 178.582C168.551 179.161 167.829 179.45 166.876 179.45C166.088 179.45 165.486 179.223 165.072 178.767C164.662 178.307 164.454 177.628 164.45 176.73V171.917H165.714V176.696C165.714 177.817 166.17 178.377 167.082 178.377C168.048 178.377 168.69 178.017 169.009 177.297V171.917H170.274V179.314H169.071L169.043 178.582ZM174.337 170.126V171.917H175.718V172.895H174.337V177.482C174.337 177.778 174.399 178.001 174.522 178.152C174.645 178.297 174.855 178.37 175.151 178.37C175.297 178.37 175.497 178.343 175.753 178.288V179.314C175.42 179.405 175.096 179.45 174.782 179.45C174.217 179.45 173.791 179.28 173.503 178.938C173.216 178.596 173.073 178.111 173.073 177.482V172.895H171.726V171.917H173.073V170.126H174.337ZM178.996 179.314H177.731V171.917H178.996V179.314ZM177.629 169.955C177.629 169.75 177.69 169.577 177.813 169.436C177.941 169.295 178.128 169.224 178.374 169.224C178.62 169.224 178.807 169.295 178.934 169.436C179.062 169.577 179.126 169.75 179.126 169.955C179.126 170.16 179.062 170.331 178.934 170.468C178.807 170.605 178.62 170.673 178.374 170.673C178.128 170.673 177.941 170.605 177.813 170.468C177.69 170.331 177.629 170.16 177.629 169.955ZM181.473 178.651C181.473 178.432 181.537 178.25 181.665 178.104C181.797 177.958 181.993 177.885 182.253 177.885C182.512 177.885 182.708 177.958 182.841 178.104C182.977 178.25 183.046 178.432 183.046 178.651C183.046 178.86 182.977 179.036 182.841 179.177C182.708 179.318 182.512 179.389 182.253 179.389C181.993 179.389 181.797 179.318 181.665 179.177C181.537 179.036 181.473 178.86 181.473 178.651Z" fill="#8D96BD"/>
</g>
    <defs>
        <filter id="filter0_d_6_1331" x="0" y="10.228" width="523" height="275.366" filterUnits="userSpaceOnUse" color-interpolation-filters="sRGB">

            <feColorMatrix in="SourceAlpha" type="matrix" values="0 0 0 0 0 0 0 0 0 0 0 0 0 0 0 0 0 0 127 0" result="hardAlpha"/>
            <feOffset dy="15"/>
            <feGaussianBlur stdDeviation="25"/>
            <feColorMatrix type="matrix" values="0 0 0 0 0.829818 0 0 0 0 0.864497 0 0 0 0 0.945415 0 0 0 1 0"/>
            <feBlend mode="normal" in2="BackgroundImageFix" result="effect1_dropShadow_6_1331"/>
            <feBlend mode="normal" in="SourceGraphic" in2="effect1_dropShadow_6_1331" result="shape"/>
        </filter>
        <filter id="filter1_d_6_1331" x="0" y="0.228027" width="523" height="275.366" filterUnits="userSpaceOnUse" color-interpolation-filters="sRGB">
            <feFlood flood-opacity="0" result="BackgroundImageFix"/>
            <feColorMatrix in="SourceAlpha" type="matrix" values="0 0 0 0 0 0 0 0 0 0 0 0 0 0 0 0 0 0 127 0" result="hardAlpha"/>
            <feColorMatrix type="matrix" values="0 0 0 0 0.954663 0 0 0 0 0.962369 0 0 0 0 0.980349 0 0 0 1 0"/>
            <feBlend mode="normal" in2="BackgroundImageFix" result="effect1_dropShadow_6_1331"/>
            <feBlend mode="normal" in="SourceGraphic" in2="effect1_dropShadow_6_1331" result="shape"/>
        </filter>
    </defs>
</svg>
